<svg width="148" height="37" viewBox="0 0 148 37" fill="none" xmlns="http://www.w3.org/2000/svg">
<path d="M0.640625 28.8281C0.640625 28.2969 0.671875 27.7344 0.734375 27.1406C1.0625 24.4688 1.90625 22.0938 3.26562 20.0156C4.92188 17.4688 6.91406 16.1953 9.24219 16.1953C9.86719 16.1953 10.4688 16.2734 11.0469 16.4297C13.1094 17.0234 14.1406 18.4766 14.1406 20.7891C14.1406 20.9609 14.1328 21.1406 14.1172 21.3281C13.9609 23.4219 13.0234 25.1797 11.3047 26.6016C9.61719 28.0078 7.65625 28.7109 5.42188 28.7109C5 28.7109 4.58594 28.6719 4.17969 28.5938C4.14844 28.8281 4.13281 29.1562 4.13281 29.5781C4.13281 30.4844 4.28906 31.1875 4.60156 31.6875C5.02344 32.3281 5.89062 32.7031 7.20312 32.8125C7.78125 32.8125 8.35156 32.75 8.91406 32.625C9.89844 32.3906 11.0625 31.8359 12.4062 30.9609C13.2812 30.3828 13.8984 30.0938 14.2578 30.0938C14.4609 30.0938 14.6719 30.1562 14.8906 30.2812C15.3906 30.5781 15.6406 31.0078 15.6406 31.5703C15.6406 31.7578 15.6016 31.9609 15.5234 32.1797C15.1016 33.1953 13.8359 34.1562 11.7266 35.0625C9.77344 35.9062 8.05469 36.3281 6.57031 36.3281C6.00781 36.3281 5.48438 36.2812 5 36.1875C2.09375 35.5938 0.640625 33.1406 0.640625 28.8281ZM8.16406 19.875C6.74219 20.8281 5.625 22.6406 4.8125 25.3125C5.20312 25.4062 5.57812 25.4531 5.9375 25.4531C7.23438 25.4531 8.36719 25.0547 9.33594 24.2578C10.4141 23.3828 10.9531 22.3438 10.9531 21.1406C10.9531 19.9375 10.5703 19.3281 9.80469 19.3125C9.25781 19.3281 8.71094 19.5156 8.16406 19.875ZM20.0703 17.8359C20.0703 18.2891 19.9922 19.2656 19.8359 20.7656C19.3516 25.2031 19.1094 27.9609 19.1094 29.0391C19.1094 29.7578 19.2578 30.4297 19.5547 31.0547C19.9922 31.9922 20.5781 32.4609 21.3125 32.4609C21.4688 32.4609 21.6328 32.4453 21.8047 32.4141C22.2578 32.3047 22.9141 31.9375 23.7734 31.3125C24.6172 30.6875 25.2969 30.375 25.8125 30.375C26.0312 30.375 26.25 30.4531 26.4688 30.6094C26.9062 30.9219 27.125 31.3359 27.125 31.8516C27.0625 32.6484 26.4453 33.4922 25.2734 34.3828C23.8359 35.3828 22.3281 35.8828 20.75 35.8828C19.4219 35.8828 18.3203 35.4219 17.4453 34.5C16.1328 33.0938 15.4766 30.8594 15.4766 27.7969C15.4766 26.75 15.6875 24.7031 16.1094 21.6562C16.2969 20.2344 16.4297 19.1875 16.5078 18.5156C16.5234 18.375 16.5391 18.2344 16.5547 18.0938C16.8047 16.5312 17.4453 15.75 18.4766 15.75C18.6484 15.75 18.8203 15.7656 18.9922 15.7969C19.7109 15.9688 20.0703 16.6484 20.0703 17.8359ZM17.3984 11.6953C17.3984 11.4141 17.4609 11.1484 17.5859 10.8984C17.8984 10.2891 18.4062 9.98438 19.1094 9.98438C19.3906 9.98438 19.6562 10.0469 19.9062 10.1719C20.5156 10.4844 20.8203 10.9922 20.8203 11.6953C20.8203 11.9766 20.7578 12.2422 20.6328 12.4922C20.3203 13.1016 19.8125 13.4062 19.1094 13.4062C18.8281 13.4062 18.5625 13.3438 18.3125 13.2188C17.7031 12.9062 17.3984 12.3984 17.3984 11.6953ZM28.2969 32.8828C28.2969 32.8828 31.6641 28.3594 38.3984 19.3125H30.8047C30.2891 19.3125 29.8594 19.2812 29.5156 19.2188C28.5938 19.0312 28.1328 18.5 28.1328 17.625C28.1328 17.5312 28.1484 17.4297 28.1797 17.3203C28.3984 16.4922 29.1484 16.0781 30.4297 16.0781H41.4453C41.6641 16.0781 41.8672 16.1094 42.0547 16.1719C42.7578 16.375 43.1094 16.9141 43.1094 17.7891C43.1094 18.0234 43.0312 18.3047 42.875 18.6328C42.7344 18.8828 41.7031 20.3203 39.7812 22.9453C37.2031 26.4922 34.8047 29.7969 32.5859 32.8594H41.5859C42.6797 32.875 43.2422 33.3906 43.2734 34.4062C43.2734 34.6562 43.2266 34.8828 43.1328 35.0859C42.8516 35.6953 41.9922 36 40.5547 36H29.2812C29.0469 36 28.8125 35.9453 28.5781 35.8359C27.9375 35.5234 27.6172 35.0312 27.6172 34.3594C27.6172 34.3125 27.6172 34.2656 27.6172 34.2188C27.6484 33.9844 27.875 33.5391 28.2969 32.8828ZM49.8359 16.3125C50.3828 16.3281 50.8984 16.3828 51.3828 16.4766C53.7891 16.9922 55.2656 18.8672 55.8125 22.1016C56.1094 21.9297 56.6016 21.6094 57.2891 21.1406C58.2266 20.5 58.9375 20.1797 59.4219 20.1797C59.6562 20.1797 59.8828 20.25 60.1016 20.3906C60.5859 20.7031 60.8281 21.125 60.8281 21.6562C60.8125 22.1875 60.4688 22.7734 59.7969 23.4141C58.8438 24.2891 57.6094 25.0312 56.0938 25.6406C56.0781 28.0781 55.7109 30.1406 54.9922 31.8281C53.8203 34.5781 51.8984 35.9531 49.2266 35.9531C48.2734 35.9531 47.3203 35.6484 46.3672 35.0391C44.1641 33.5859 43.0625 30.9688 43.0625 27.1875C43.0625 24.9062 43.4453 22.8281 44.2109 20.9531C45.4141 18 47.2891 16.4531 49.8359 16.3125ZM52.7656 26.25C52.1562 26.2344 51.5781 26.1719 51.0312 26.0625C48.9688 25.625 47.6406 24.5312 47.0469 22.7812C46.6406 24.0938 46.4375 25.5234 46.4375 27.0703C46.4375 27.8203 46.5078 28.5469 46.6484 29.25C47.0859 31.3906 48.0391 32.4609 49.5078 32.4609C49.9922 32.4609 50.4297 32.3125 50.8203 32.0156C51.9609 31.1406 52.6094 29.2188 52.7656 26.25ZM52.4141 23.0625C52.4141 23.0625 52.5234 23.0625 52.7422 23.0625C52.5078 20.9219 51.9453 19.8438 51.0547 19.8281C50.9766 19.8281 50.8984 19.8359 50.8203 19.8516C50.4766 19.9766 50.3047 20.2344 50.3047 20.625C50.3047 20.9688 50.3594 21.3047 50.4688 21.6328C50.8125 22.5859 51.4609 23.0625 52.4141 23.0625ZM68.6328 36C64.8672 35.8438 62.0781 33.5469 60.2656 29.1094C58.9219 25.7656 58.25 21.6719 58.25 16.8281C58.25 16.5781 58.2656 16.2578 58.2969 15.8672C58.5156 12.5703 59.125 9.54688 60.125 6.79688C61.75 2.35938 64.0469 0.140625 67.0156 0.140625C67.1719 0.140625 67.3359 0.148437 67.5078 0.164062C70.2109 0.335937 71.5625 1.90625 71.5625 4.875C71.5625 8.10938 70.1719 11.7031 67.3906 15.6562C65.625 18.1719 63.7734 20.2109 61.8359 21.7734C62.3672 24.7422 62.9531 26.9688 63.5938 28.4531C64.7812 31.2031 66.5469 32.5781 68.8906 32.5781C69.0469 32.5781 69.2109 32.5625 69.3828 32.5312C69.8984 32.4375 70.6172 32.0625 71.5391 31.4062C72.4297 30.7969 73.125 30.4922 73.625 30.4922C73.8438 30.4922 74.0547 30.5625 74.2578 30.7031C74.7109 31.0156 74.9375 31.4375 74.9375 31.9688C74.9062 32.7812 74.3281 33.6172 73.2031 34.4766C71.7969 35.4922 70.2734 36 68.6328 36ZM67.0391 3.67969C66.1172 3.69531 65.3047 4.09375 64.6016 4.875C62.8203 6.89062 61.8438 11.1016 61.6719 17.5078C62.6094 16.5547 63.5469 15.4297 64.4844 14.1328C67.0781 10.5859 68.375 7.59375 68.375 5.15625C68.375 5.03125 68.3438 4.88281 68.2812 4.71094C68.0312 4.02344 67.6172 3.67969 67.0391 3.67969ZM71.6562 28.8281C71.6562 28.2969 71.6875 27.7344 71.75 27.1406C72.0781 24.4688 72.9219 22.0938 74.2812 20.0156C75.9375 17.4688 77.9297 16.1953 80.2578 16.1953C80.8828 16.1953 81.4844 16.2734 82.0625 16.4297C84.125 17.0234 85.1562 18.4766 85.1562 20.7891C85.1562 20.9609 85.1484 21.1406 85.1328 21.3281C84.9766 23.4219 84.0391 25.1797 82.3203 26.6016C80.6328 28.0078 78.6719 28.7109 76.4375 28.7109C76.0156 28.7109 75.6016 28.6719 75.1953 28.5938C75.1641 28.8281 75.1484 29.1562 75.1484 29.5781C75.1484 30.4844 75.3047 31.1875 75.6172 31.6875C76.0391 32.3281 76.9062 32.7031 78.2188 32.8125C78.7969 32.8125 79.3672 32.75 79.9297 32.625C80.9141 32.3906 82.0781 31.8359 83.4219 30.9609C84.2969 30.3828 84.9141 30.0938 85.2734 30.0938C85.4766 30.0938 85.6875 30.1562 85.9062 30.2812C86.4062 30.5781 86.6562 31.0078 86.6562 31.5703C86.6562 31.7578 86.6172 31.9609 86.5391 32.1797C86.1172 33.1953 84.8516 34.1562 82.7422 35.0625C80.7891 35.9062 79.0703 36.3281 77.5859 36.3281C77.0234 36.3281 76.5 36.2812 76.0156 36.1875C73.1094 35.5938 71.6562 33.1406 71.6562 28.8281ZM79.1797 19.875C77.7578 20.8281 76.6406 22.6406 75.8281 25.3125C76.2188 25.4062 76.5938 25.4531 76.9531 25.4531C78.25 25.4531 79.3828 25.0547 80.3516 24.2578C81.4297 23.3828 81.9688 22.3438 81.9688 21.1406C81.9688 19.9375 81.5859 19.3281 80.8203 19.3125C80.2734 19.3281 79.7266 19.5156 79.1797 19.875ZM88.7422 28.4766C88.7422 27.9453 88.7734 27.3828 88.8359 26.7891C89.1641 24.1172 90.0078 21.7422 91.3672 19.6641C93.0234 17.1172 95.0156 15.8438 97.3438 15.8438C98.3594 15.8438 99.2422 16.0312 99.9922 16.4062C100.289 16.0469 100.703 15.8594 101.234 15.8438C101.484 15.8438 101.719 15.875 101.938 15.9375C102.531 16.1562 102.828 16.8125 102.828 17.9062C102.828 18.3594 102.75 19.3281 102.594 20.8125C102.125 25.2812 101.891 28.0469 101.891 29.1094C101.891 29.8281 102.031 30.5 102.312 31.125C102.75 32.0625 103.336 32.5312 104.07 32.5312C104.367 32.5312 104.664 32.4766 104.961 32.3672C107.164 31.6016 109.031 28.2266 110.562 22.2422C109.938 22.0859 109.359 21.8281 108.828 21.4688C107.406 20.5156 106.695 19.1328 106.695 17.3203C106.695 16.6484 106.867 16.0156 107.211 15.4219C107.898 14.2344 108.992 13.6406 110.492 13.6406C111.258 13.6406 111.984 13.8438 112.672 14.25C113.797 14.9531 114.359 15.9219 114.359 17.1562C114.359 17.6562 114.32 18.2969 114.242 19.0781C114.617 18.875 115.164 18.5312 115.883 18.0469C116.727 17.4531 117.359 17.1562 117.781 17.1562C118.266 17.1562 118.703 17.2812 119.094 17.5312C119.547 17.8125 119.773 18.1016 119.773 18.3984C119.773 18.4922 119.719 18.7422 119.609 19.1484C118.797 21.8516 118.391 24.2344 118.391 26.2969C118.391 27.8281 118.547 29.0781 118.859 30.0469C119.297 31.3281 119.945 31.9688 120.805 31.9688C121.289 31.9375 122.078 31.5938 123.172 30.9375C124.125 30.2969 124.836 29.9766 125.305 29.9766C125.539 29.9766 125.773 30.0625 126.008 30.2344C126.414 30.5312 126.617 30.8828 126.617 31.2891C126.57 32.1641 125.961 33.0547 124.789 33.9609C123.398 34.9766 121.914 35.4844 120.336 35.4844C120.148 35.4844 119.953 35.4766 119.75 35.4609C118.016 35.2422 116.742 34.2422 115.93 32.4609C115.336 31.4141 115.039 29.6016 115.039 27.0234C115.039 26.5234 115.055 25.9922 115.086 25.4297C115.18 23.7266 115.32 22.5078 115.508 21.7734C115.023 22.0078 114.438 22.1953 113.75 22.3359C113.656 22.8203 113.555 23.2969 113.445 23.7656C111.523 31.8906 108.211 35.9531 103.508 35.9531C101.539 35.9375 100.102 34.9453 99.1953 32.9766C98.9922 33.2109 98.7578 33.4531 98.4922 33.7031C96.9141 35.2031 95.3203 35.9531 93.7109 35.9531C92.7109 35.9531 91.8438 35.6953 91.1094 35.1797C89.5312 34.0234 88.7422 31.7891 88.7422 28.4766ZM98.9375 21.5391C98.9531 21.4453 99.0469 20.6641 99.2188 19.1953C98.8281 19.0078 98.4688 18.9141 98.1406 18.9141C97.8438 18.9141 97.5469 18.9531 97.25 19.0312C95.8125 19.4688 94.5938 20.8281 93.5938 23.1094C92.6875 25.1562 92.2344 27.1953 92.2344 29.2266C92.2344 29.5234 92.25 29.8047 92.2812 30.0703C92.4219 31.5859 92.8984 32.3438 93.7109 32.3438C94.1484 32.3438 94.6797 32.125 95.3047 31.6875C96.0391 31.1719 96.625 30.6328 97.0625 30.0703C97.1875 29.8828 97.3594 29.3906 97.5781 28.5938C98.1875 26.3125 98.6406 23.9609 98.9375 21.5391ZM109.531 17.4844C109.547 18.3594 110.094 18.9844 111.172 19.3594C111.328 18.3906 111.406 17.7656 111.406 17.4844C111.406 17.3906 111.391 17.2891 111.359 17.1797C111.25 16.7422 110.969 16.5234 110.516 16.5234C110.422 16.5234 110.32 16.5391 110.211 16.5703C109.758 16.7109 109.531 17.0156 109.531 17.4844ZM124.859 33.5625C124.859 33.5625 125.523 28.5469 126.852 18.5156C126.883 18.25 126.922 18 126.969 17.7656C127.25 16.4219 127.859 15.75 128.797 15.75C128.969 15.75 129.141 15.7656 129.312 15.7969C130.031 15.9688 130.391 16.6484 130.391 17.8359C130.391 18.0078 130.375 18.3047 130.344 18.7266C130.328 19.0078 130.32 19.2266 130.32 19.3828C130.352 19.3203 130.391 19.2578 130.438 19.1953C131.594 17.1484 133.242 16.125 135.383 16.125C136.148 16.125 136.852 16.3516 137.492 16.8047C138.445 17.5078 138.922 18.4375 138.922 19.5938C138.922 19.7812 138.914 20.2266 138.898 20.9297C138.883 22.5234 138.875 23.7891 138.875 24.7266C138.875 27.9141 138.969 29.7891 139.156 30.3516C139.203 30.4766 139.25 30.6094 139.297 30.75C139.734 31.9375 140.352 32.5312 141.148 32.5312C141.289 32.5312 141.445 32.5156 141.617 32.4844C142.086 32.3906 142.758 32.0234 143.633 31.3828C144.492 30.7734 145.18 30.4688 145.695 30.4688C145.898 30.4688 146.094 30.5234 146.281 30.6328C146.766 30.9141 147.008 31.375 147.008 32.0156C146.914 32.7812 146.258 33.625 145.039 34.5469C143.602 35.5156 142.156 36 140.703 36C139.531 36 138.539 35.6797 137.727 35.0391C136.055 33.6953 135.219 30.75 135.219 26.2031C135.219 25.875 135.227 25.3438 135.242 24.6094C135.273 23.8438 135.289 23.2031 135.289 22.6875C135.289 21.0156 135.102 20.1562 134.727 20.1094C134.664 20.1094 134.586 20.125 134.492 20.1562C133.602 20.4844 132.461 22.2578 131.07 25.4766C129.852 28.3047 129.07 30.6562 128.727 32.5312L128.68 33.2109C128.633 33.7734 128.477 34.2891 128.211 34.7578C127.758 35.5078 127.195 35.8828 126.523 35.8828C126.336 35.8828 126.148 35.8438 125.961 35.7656C125.227 35.4219 124.859 34.6875 124.859 33.5625Z" fill="#ADD8E6"/>
<path d="M0.640625 28.8281C0.640625 28.2969 0.671875 27.7344 0.734375 27.1406C1.0625 24.4688 1.90625 22.0938 3.26562 20.0156C4.92188 17.4688 6.91406 16.1953 9.24219 16.1953C9.86719 16.1953 10.4688 16.2734 11.0469 16.4297C13.1094 17.0234 14.1406 18.4766 14.1406 20.7891C14.1406 20.9609 14.1328 21.1406 14.1172 21.3281C13.9609 23.4219 13.0234 25.1797 11.3047 26.6016C9.61719 28.0078 7.65625 28.7109 5.42188 28.7109C5 28.7109 4.58594 28.6719 4.17969 28.5938C4.14844 28.8281 4.13281 29.1562 4.13281 29.5781C4.13281 30.4844 4.28906 31.1875 4.60156 31.6875C5.02344 32.3281 5.89062 32.7031 7.20312 32.8125C7.78125 32.8125 8.35156 32.75 8.91406 32.625C9.89844 32.3906 11.0625 31.8359 12.4062 30.9609C13.2812 30.3828 13.8984 30.0938 14.2578 30.0938C14.4609 30.0938 14.6719 30.1562 14.8906 30.2812C15.3906 30.5781 15.6406 31.0078 15.6406 31.5703C15.6406 31.7578 15.6016 31.9609 15.5234 32.1797C15.1016 33.1953 13.8359 34.1562 11.7266 35.0625C9.77344 35.9062 8.05469 36.3281 6.57031 36.3281C6.00781 36.3281 5.48438 36.2812 5 36.1875C2.09375 35.5938 0.640625 33.1406 0.640625 28.8281ZM8.16406 19.875C6.74219 20.8281 5.625 22.6406 4.8125 25.3125C5.20312 25.4062 5.57812 25.4531 5.9375 25.4531C7.23438 25.4531 8.36719 25.0547 9.33594 24.2578C10.4141 23.3828 10.9531 22.3438 10.9531 21.1406C10.9531 19.9375 10.5703 19.3281 9.80469 19.3125C9.25781 19.3281 8.71094 19.5156 8.16406 19.875ZM20.0703 17.8359C20.0703 18.2891 19.9922 19.2656 19.8359 20.7656C19.3516 25.2031 19.1094 27.9609 19.1094 29.0391C19.1094 29.7578 19.2578 30.4297 19.5547 31.0547C19.9922 31.9922 20.5781 32.4609 21.3125 32.4609C21.4688 32.4609 21.6328 32.4453 21.8047 32.4141C22.2578 32.3047 22.9141 31.9375 23.7734 31.3125C24.6172 30.6875 25.2969 30.375 25.8125 30.375C26.0312 30.375 26.25 30.4531 26.4688 30.6094C26.9062 30.9219 27.125 31.3359 27.125 31.8516C27.0625 32.6484 26.4453 33.4922 25.2734 34.3828C23.8359 35.3828 22.3281 35.8828 20.75 35.8828C19.4219 35.8828 18.3203 35.4219 17.4453 34.5C16.1328 33.0938 15.4766 30.8594 15.4766 27.7969C15.4766 26.75 15.6875 24.7031 16.1094 21.6562C16.2969 20.2344 16.4297 19.1875 16.5078 18.5156C16.5234 18.375 16.5391 18.2344 16.5547 18.0938C16.8047 16.5312 17.4453 15.75 18.4766 15.75C18.6484 15.75 18.8203 15.7656 18.9922 15.7969C19.7109 15.9688 20.0703 16.6484 20.0703 17.8359ZM17.3984 11.6953C17.3984 11.4141 17.4609 11.1484 17.5859 10.8984C17.8984 10.2891 18.4062 9.98438 19.1094 9.98438C19.3906 9.98438 19.6562 10.0469 19.9062 10.1719C20.5156 10.4844 20.8203 10.9922 20.8203 11.6953C20.8203 11.9766 20.7578 12.2422 20.6328 12.4922C20.3203 13.1016 19.8125 13.4062 19.1094 13.4062C18.8281 13.4062 18.5625 13.3438 18.3125 13.2188C17.7031 12.9062 17.3984 12.3984 17.3984 11.6953ZM28.2969 32.8828C28.2969 32.8828 31.6641 28.3594 38.3984 19.3125H30.8047C30.2891 19.3125 29.8594 19.2812 29.5156 19.2188C28.5938 19.0312 28.1328 18.5 28.1328 17.625C28.1328 17.5312 28.1484 17.4297 28.1797 17.3203C28.3984 16.4922 29.1484 16.0781 30.4297 16.0781H41.4453C41.6641 16.0781 41.8672 16.1094 42.0547 16.1719C42.7578 16.375 43.1094 16.9141 43.1094 17.7891C43.1094 18.0234 43.0312 18.3047 42.875 18.6328C42.7344 18.8828 41.7031 20.3203 39.7812 22.9453C37.2031 26.4922 34.8047 29.7969 32.5859 32.8594H41.5859C42.6797 32.875 43.2422 33.3906 43.2734 34.4062C43.2734 34.6562 43.2266 34.8828 43.1328 35.0859C42.8516 35.6953 41.9922 36 40.5547 36H29.2812C29.0469 36 28.8125 35.9453 28.5781 35.8359C27.9375 35.5234 27.6172 35.0312 27.6172 34.3594C27.6172 34.3125 27.6172 34.2656 27.6172 34.2188C27.6484 33.9844 27.875 33.5391 28.2969 32.8828ZM49.8359 16.3125C50.3828 16.3281 50.8984 16.3828 51.3828 16.4766C53.7891 16.9922 55.2656 18.8672 55.8125 22.1016C56.1094 21.9297 56.6016 21.6094 57.2891 21.1406C58.2266 20.5 58.9375 20.1797 59.4219 20.1797C59.6562 20.1797 59.8828 20.25 60.1016 20.3906C60.5859 20.7031 60.8281 21.125 60.8281 21.6562C60.8125 22.1875 60.4688 22.7734 59.7969 23.4141C58.8438 24.2891 57.6094 25.0312 56.0938 25.6406C56.0781 28.0781 55.7109 30.1406 54.9922 31.8281C53.8203 34.5781 51.8984 35.9531 49.2266 35.9531C48.2734 35.9531 47.3203 35.6484 46.3672 35.0391C44.1641 33.5859 43.0625 30.9688 43.0625 27.1875C43.0625 24.9062 43.4453 22.8281 44.2109 20.9531C45.4141 18 47.2891 16.4531 49.8359 16.3125ZM52.7656 26.25C52.1562 26.2344 51.5781 26.1719 51.0312 26.0625C48.9688 25.625 47.6406 24.5312 47.0469 22.7812C46.6406 24.0938 46.4375 25.5234 46.4375 27.0703C46.4375 27.8203 46.5078 28.5469 46.6484 29.25C47.0859 31.3906 48.0391 32.4609 49.5078 32.4609C49.9922 32.4609 50.4297 32.3125 50.8203 32.0156C51.9609 31.1406 52.6094 29.2188 52.7656 26.25ZM52.4141 23.0625C52.4141 23.0625 52.5234 23.0625 52.7422 23.0625C52.5078 20.9219 51.9453 19.8438 51.0547 19.8281C50.9766 19.8281 50.8984 19.8359 50.8203 19.8516C50.4766 19.9766 50.3047 20.2344 50.3047 20.625C50.3047 20.9688 50.3594 21.3047 50.4688 21.6328C50.8125 22.5859 51.4609 23.0625 52.4141 23.0625ZM68.6328 36C64.8672 35.8438 62.0781 33.5469 60.2656 29.1094C58.9219 25.7656 58.25 21.6719 58.25 16.8281C58.25 16.5781 58.2656 16.2578 58.2969 15.8672C58.5156 12.5703 59.125 9.54688 60.125 6.79688C61.75 2.35938 64.0469 0.140625 67.0156 0.140625C67.1719 0.140625 67.3359 0.148437 67.5078 0.164062C70.2109 0.335937 71.5625 1.90625 71.5625 4.875C71.5625 8.10938 70.1719 11.7031 67.3906 15.6562C65.625 18.1719 63.7734 20.2109 61.8359 21.7734C62.3672 24.7422 62.9531 26.9688 63.5938 28.4531C64.7812 31.2031 66.5469 32.5781 68.8906 32.5781C69.0469 32.5781 69.2109 32.5625 69.3828 32.5312C69.8984 32.4375 70.6172 32.0625 71.5391 31.4062C72.4297 30.7969 73.125 30.4922 73.625 30.4922C73.8438 30.4922 74.0547 30.5625 74.2578 30.7031C74.7109 31.0156 74.9375 31.4375 74.9375 31.9688C74.9062 32.7812 74.3281 33.6172 73.2031 34.4766C71.7969 35.4922 70.2734 36 68.6328 36ZM67.0391 3.67969C66.1172 3.69531 65.3047 4.09375 64.6016 4.875C62.8203 6.89062 61.8438 11.1016 61.6719 17.5078C62.6094 16.5547 63.5469 15.4297 64.4844 14.1328C67.0781 10.5859 68.375 7.59375 68.375 5.15625C68.375 5.03125 68.3438 4.88281 68.2812 4.71094C68.0312 4.02344 67.6172 3.67969 67.0391 3.67969ZM71.6562 28.8281C71.6562 28.2969 71.6875 27.7344 71.75 27.1406C72.0781 24.4688 72.9219 22.0938 74.2812 20.0156C75.9375 17.4688 77.9297 16.1953 80.2578 16.1953C80.8828 16.1953 81.4844 16.2734 82.0625 16.4297C84.125 17.0234 85.1562 18.4766 85.1562 20.7891C85.1562 20.9609 85.1484 21.1406 85.1328 21.3281C84.9766 23.4219 84.0391 25.1797 82.3203 26.6016C80.6328 28.0078 78.6719 28.7109 76.4375 28.7109C76.0156 28.7109 75.6016 28.6719 75.1953 28.5938C75.1641 28.8281 75.1484 29.1562 75.1484 29.5781C75.1484 30.4844 75.3047 31.1875 75.6172 31.6875C76.0391 32.3281 76.9062 32.7031 78.2188 32.8125C78.7969 32.8125 79.3672 32.75 79.9297 32.625C80.9141 32.3906 82.0781 31.8359 83.4219 30.9609C84.2969 30.3828 84.9141 30.0938 85.2734 30.0938C85.4766 30.0938 85.6875 30.1562 85.9062 30.2812C86.4062 30.5781 86.6562 31.0078 86.6562 31.5703C86.6562 31.7578 86.6172 31.9609 86.5391 32.1797C86.1172 33.1953 84.8516 34.1562 82.7422 35.0625C80.7891 35.9062 79.0703 36.3281 77.5859 36.3281C77.0234 36.3281 76.5 36.2812 76.0156 36.1875C73.1094 35.5938 71.6562 33.1406 71.6562 28.8281ZM79.1797 19.875C77.7578 20.8281 76.6406 22.6406 75.8281 25.3125C76.2188 25.4062 76.5938 25.4531 76.9531 25.4531C78.25 25.4531 79.3828 25.0547 80.3516 24.2578C81.4297 23.3828 81.9688 22.3438 81.9688 21.1406C81.9688 19.9375 81.5859 19.3281 80.8203 19.3125C80.2734 19.3281 79.7266 19.5156 79.1797 19.875ZM88.7422 28.4766C88.7422 27.9453 88.7734 27.3828 88.8359 26.7891C89.1641 24.1172 90.0078 21.7422 91.3672 19.6641C93.0234 17.1172 95.0156 15.8438 97.3438 15.8438C98.3594 15.8438 99.2422 16.0312 99.9922 16.4062C100.289 16.0469 100.703 15.8594 101.234 15.8438C101.484 15.8438 101.719 15.875 101.938 15.9375C102.531 16.1562 102.828 16.8125 102.828 17.9062C102.828 18.3594 102.75 19.3281 102.594 20.8125C102.125 25.2812 101.891 28.0469 101.891 29.1094C101.891 29.8281 102.031 30.5 102.312 31.125C102.75 32.0625 103.336 32.5312 104.07 32.5312C104.367 32.5312 104.664 32.4766 104.961 32.3672C107.164 31.6016 109.031 28.2266 110.562 22.2422C109.938 22.0859 109.359 21.8281 108.828 21.4688C107.406 20.5156 106.695 19.1328 106.695 17.3203C106.695 16.6484 106.867 16.0156 107.211 15.4219C107.898 14.2344 108.992 13.6406 110.492 13.6406C111.258 13.6406 111.984 13.8438 112.672 14.25C113.797 14.9531 114.359 15.9219 114.359 17.1562C114.359 17.6562 114.32 18.2969 114.242 19.0781C114.617 18.875 115.164 18.5312 115.883 18.0469C116.727 17.4531 117.359 17.1562 117.781 17.1562C118.266 17.1562 118.703 17.2812 119.094 17.5312C119.547 17.8125 119.773 18.1016 119.773 18.3984C119.773 18.4922 119.719 18.7422 119.609 19.1484C118.797 21.8516 118.391 24.2344 118.391 26.2969C118.391 27.8281 118.547 29.0781 118.859 30.0469C119.297 31.3281 119.945 31.9688 120.805 31.9688C121.289 31.9375 122.078 31.5938 123.172 30.9375C124.125 30.2969 124.836 29.9766 125.305 29.9766C125.539 29.9766 125.773 30.0625 126.008 30.2344C126.414 30.5312 126.617 30.8828 126.617 31.2891C126.57 32.1641 125.961 33.0547 124.789 33.9609C123.398 34.9766 121.914 35.4844 120.336 35.4844C120.148 35.4844 119.953 35.4766 119.75 35.4609C118.016 35.2422 116.742 34.2422 115.93 32.4609C115.336 31.4141 115.039 29.6016 115.039 27.0234C115.039 26.5234 115.055 25.9922 115.086 25.4297C115.18 23.7266 115.32 22.5078 115.508 21.7734C115.023 22.0078 114.438 22.1953 113.75 22.3359C113.656 22.8203 113.555 23.2969 113.445 23.7656C111.523 31.8906 108.211 35.9531 103.508 35.9531C101.539 35.9375 100.102 34.9453 99.1953 32.9766C98.9922 33.2109 98.7578 33.4531 98.4922 33.7031C96.9141 35.2031 95.3203 35.9531 93.7109 35.9531C92.7109 35.9531 91.8438 35.6953 91.1094 35.1797C89.5312 34.0234 88.7422 31.7891 88.7422 28.4766ZM98.9375 21.5391C98.9531 21.4453 99.0469 20.6641 99.2188 19.1953C98.8281 19.0078 98.4688 18.9141 98.1406 18.9141C97.8438 18.9141 97.5469 18.9531 97.25 19.0312C95.8125 19.4688 94.5938 20.8281 93.5938 23.1094C92.6875 25.1562 92.2344 27.1953 92.2344 29.2266C92.2344 29.5234 92.25 29.8047 92.2812 30.0703C92.4219 31.5859 92.8984 32.3438 93.7109 32.3438C94.1484 32.3438 94.6797 32.125 95.3047 31.6875C96.0391 31.1719 96.625 30.6328 97.0625 30.0703C97.1875 29.8828 97.3594 29.3906 97.5781 28.5938C98.1875 26.3125 98.6406 23.9609 98.9375 21.5391ZM109.531 17.4844C109.547 18.3594 110.094 18.9844 111.172 19.3594C111.328 18.3906 111.406 17.7656 111.406 17.4844C111.406 17.3906 111.391 17.2891 111.359 17.1797C111.25 16.7422 110.969 16.5234 110.516 16.5234C110.422 16.5234 110.32 16.5391 110.211 16.5703C109.758 16.7109 109.531 17.0156 109.531 17.4844ZM124.859 33.5625C124.859 33.5625 125.523 28.5469 126.852 18.5156C126.883 18.25 126.922 18 126.969 17.7656C127.25 16.4219 127.859 15.75 128.797 15.75C128.969 15.75 129.141 15.7656 129.312 15.7969C130.031 15.9688 130.391 16.6484 130.391 17.8359C130.391 18.0078 130.375 18.3047 130.344 18.7266C130.328 19.0078 130.32 19.2266 130.32 19.3828C130.352 19.3203 130.391 19.2578 130.438 19.1953C131.594 17.1484 133.242 16.125 135.383 16.125C136.148 16.125 136.852 16.3516 137.492 16.8047C138.445 17.5078 138.922 18.4375 138.922 19.5938C138.922 19.7812 138.914 20.2266 138.898 20.9297C138.883 22.5234 138.875 23.7891 138.875 24.7266C138.875 27.9141 138.969 29.7891 139.156 30.3516C139.203 30.4766 139.25 30.6094 139.297 30.75C139.734 31.9375 140.352 32.5312 141.148 32.5312C141.289 32.5312 141.445 32.5156 141.617 32.4844C142.086 32.3906 142.758 32.0234 143.633 31.3828C144.492 30.7734 145.18 30.4688 145.695 30.4688C145.898 30.4688 146.094 30.5234 146.281 30.6328C146.766 30.9141 147.008 31.375 147.008 32.0156C146.914 32.7812 146.258 33.625 145.039 34.5469C143.602 35.5156 142.156 36 140.703 36C139.531 36 138.539 35.6797 137.727 35.0391C136.055 33.6953 135.219 30.75 135.219 26.2031C135.219 25.875 135.227 25.3438 135.242 24.6094C135.273 23.8438 135.289 23.2031 135.289 22.6875C135.289 21.0156 135.102 20.1562 134.727 20.1094C134.664 20.1094 134.586 20.125 134.492 20.1562C133.602 20.4844 132.461 22.2578 131.07 25.4766C129.852 28.3047 129.07 30.6562 128.727 32.5312L128.68 33.2109C128.633 33.7734 128.477 34.2891 128.211 34.7578C127.758 35.5078 127.195 35.8828 126.523 35.8828C126.336 35.8828 126.148 35.8438 125.961 35.7656C125.227 35.4219 124.859 34.6875 124.859 33.5625Z" fill="url(#paint0_angular_65:4272)" fill-opacity="0.5"/>
<path d="M0.640625 28.8281C0.640625 28.2969 0.671875 27.7344 0.734375 27.1406C1.0625 24.4688 1.90625 22.0938 3.26562 20.0156C4.92188 17.4688 6.91406 16.1953 9.24219 16.1953C9.86719 16.1953 10.4688 16.2734 11.0469 16.4297C13.1094 17.0234 14.1406 18.4766 14.1406 20.7891C14.1406 20.9609 14.1328 21.1406 14.1172 21.3281C13.9609 23.4219 13.0234 25.1797 11.3047 26.6016C9.61719 28.0078 7.65625 28.7109 5.42188 28.7109C5 28.7109 4.58594 28.6719 4.17969 28.5938C4.14844 28.8281 4.13281 29.1562 4.13281 29.5781C4.13281 30.4844 4.28906 31.1875 4.60156 31.6875C5.02344 32.3281 5.89062 32.7031 7.20312 32.8125C7.78125 32.8125 8.35156 32.75 8.91406 32.625C9.89844 32.3906 11.0625 31.8359 12.4062 30.9609C13.2812 30.3828 13.8984 30.0938 14.2578 30.0938C14.4609 30.0938 14.6719 30.1562 14.8906 30.2812C15.3906 30.5781 15.6406 31.0078 15.6406 31.5703C15.6406 31.7578 15.6016 31.9609 15.5234 32.1797C15.1016 33.1953 13.8359 34.1562 11.7266 35.0625C9.77344 35.9062 8.05469 36.3281 6.57031 36.3281C6.00781 36.3281 5.48438 36.2812 5 36.1875C2.09375 35.5938 0.640625 33.1406 0.640625 28.8281ZM8.16406 19.875C6.74219 20.8281 5.625 22.6406 4.8125 25.3125C5.20312 25.4062 5.57812 25.4531 5.9375 25.4531C7.23438 25.4531 8.36719 25.0547 9.33594 24.2578C10.4141 23.3828 10.9531 22.3438 10.9531 21.1406C10.9531 19.9375 10.5703 19.3281 9.80469 19.3125C9.25781 19.3281 8.71094 19.5156 8.16406 19.875ZM20.0703 17.8359C20.0703 18.2891 19.9922 19.2656 19.8359 20.7656C19.3516 25.2031 19.1094 27.9609 19.1094 29.0391C19.1094 29.7578 19.2578 30.4297 19.5547 31.0547C19.9922 31.9922 20.5781 32.4609 21.3125 32.4609C21.4688 32.4609 21.6328 32.4453 21.8047 32.4141C22.2578 32.3047 22.9141 31.9375 23.7734 31.3125C24.6172 30.6875 25.2969 30.375 25.8125 30.375C26.0312 30.375 26.25 30.4531 26.4688 30.6094C26.9062 30.9219 27.125 31.3359 27.125 31.8516C27.0625 32.6484 26.4453 33.4922 25.2734 34.3828C23.8359 35.3828 22.3281 35.8828 20.75 35.8828C19.4219 35.8828 18.3203 35.4219 17.4453 34.5C16.1328 33.0938 15.4766 30.8594 15.4766 27.7969C15.4766 26.75 15.6875 24.7031 16.1094 21.6562C16.2969 20.2344 16.4297 19.1875 16.5078 18.5156C16.5234 18.375 16.5391 18.2344 16.5547 18.0938C16.8047 16.5312 17.4453 15.75 18.4766 15.75C18.6484 15.75 18.8203 15.7656 18.9922 15.7969C19.7109 15.9688 20.0703 16.6484 20.0703 17.8359ZM17.3984 11.6953C17.3984 11.4141 17.4609 11.1484 17.5859 10.8984C17.8984 10.2891 18.4062 9.98438 19.1094 9.98438C19.3906 9.98438 19.6562 10.0469 19.9062 10.1719C20.5156 10.4844 20.8203 10.9922 20.8203 11.6953C20.8203 11.9766 20.7578 12.2422 20.6328 12.4922C20.3203 13.1016 19.8125 13.4062 19.1094 13.4062C18.8281 13.4062 18.5625 13.3438 18.3125 13.2188C17.7031 12.9062 17.3984 12.3984 17.3984 11.6953ZM28.2969 32.8828C28.2969 32.8828 31.6641 28.3594 38.3984 19.3125H30.8047C30.2891 19.3125 29.8594 19.2812 29.5156 19.2188C28.5938 19.0312 28.1328 18.5 28.1328 17.625C28.1328 17.5312 28.1484 17.4297 28.1797 17.3203C28.3984 16.4922 29.1484 16.0781 30.4297 16.0781H41.4453C41.6641 16.0781 41.8672 16.1094 42.0547 16.1719C42.7578 16.375 43.1094 16.9141 43.1094 17.7891C43.1094 18.0234 43.0312 18.3047 42.875 18.6328C42.7344 18.8828 41.7031 20.3203 39.7812 22.9453C37.2031 26.4922 34.8047 29.7969 32.5859 32.8594H41.5859C42.6797 32.875 43.2422 33.3906 43.2734 34.4062C43.2734 34.6562 43.2266 34.8828 43.1328 35.0859C42.8516 35.6953 41.9922 36 40.5547 36H29.2812C29.0469 36 28.8125 35.9453 28.5781 35.8359C27.9375 35.5234 27.6172 35.0312 27.6172 34.3594C27.6172 34.3125 27.6172 34.2656 27.6172 34.2188C27.6484 33.9844 27.875 33.5391 28.2969 32.8828ZM49.8359 16.3125C50.3828 16.3281 50.8984 16.3828 51.3828 16.4766C53.7891 16.9922 55.2656 18.8672 55.8125 22.1016C56.1094 21.9297 56.6016 21.6094 57.2891 21.1406C58.2266 20.5 58.9375 20.1797 59.4219 20.1797C59.6562 20.1797 59.8828 20.25 60.1016 20.3906C60.5859 20.7031 60.8281 21.125 60.8281 21.6562C60.8125 22.1875 60.4688 22.7734 59.7969 23.4141C58.8438 24.2891 57.6094 25.0312 56.0938 25.6406C56.0781 28.0781 55.7109 30.1406 54.9922 31.8281C53.8203 34.5781 51.8984 35.9531 49.2266 35.9531C48.2734 35.9531 47.3203 35.6484 46.3672 35.0391C44.1641 33.5859 43.0625 30.9688 43.0625 27.1875C43.0625 24.9062 43.4453 22.8281 44.2109 20.9531C45.4141 18 47.2891 16.4531 49.8359 16.3125ZM52.7656 26.25C52.1562 26.2344 51.5781 26.1719 51.0312 26.0625C48.9688 25.625 47.6406 24.5312 47.0469 22.7812C46.6406 24.0938 46.4375 25.5234 46.4375 27.0703C46.4375 27.8203 46.5078 28.5469 46.6484 29.25C47.0859 31.3906 48.0391 32.4609 49.5078 32.4609C49.9922 32.4609 50.4297 32.3125 50.8203 32.0156C51.9609 31.1406 52.6094 29.2188 52.7656 26.25ZM52.4141 23.0625C52.4141 23.0625 52.5234 23.0625 52.7422 23.0625C52.5078 20.9219 51.9453 19.8438 51.0547 19.8281C50.9766 19.8281 50.8984 19.8359 50.8203 19.8516C50.4766 19.9766 50.3047 20.2344 50.3047 20.625C50.3047 20.9688 50.3594 21.3047 50.4688 21.6328C50.8125 22.5859 51.4609 23.0625 52.4141 23.0625ZM68.6328 36C64.8672 35.8438 62.0781 33.5469 60.2656 29.1094C58.9219 25.7656 58.25 21.6719 58.25 16.8281C58.25 16.5781 58.2656 16.2578 58.2969 15.8672C58.5156 12.5703 59.125 9.54688 60.125 6.79688C61.75 2.35938 64.0469 0.140625 67.0156 0.140625C67.1719 0.140625 67.3359 0.148437 67.5078 0.164062C70.2109 0.335937 71.5625 1.90625 71.5625 4.875C71.5625 8.10938 70.1719 11.7031 67.3906 15.6562C65.625 18.1719 63.7734 20.2109 61.8359 21.7734C62.3672 24.7422 62.9531 26.9688 63.5938 28.4531C64.7812 31.2031 66.5469 32.5781 68.8906 32.5781C69.0469 32.5781 69.2109 32.5625 69.3828 32.5312C69.8984 32.4375 70.6172 32.0625 71.5391 31.4062C72.4297 30.7969 73.125 30.4922 73.625 30.4922C73.8438 30.4922 74.0547 30.5625 74.2578 30.7031C74.7109 31.0156 74.9375 31.4375 74.9375 31.9688C74.9062 32.7812 74.3281 33.6172 73.2031 34.4766C71.7969 35.4922 70.2734 36 68.6328 36ZM67.0391 3.67969C66.1172 3.69531 65.3047 4.09375 64.6016 4.875C62.8203 6.89062 61.8438 11.1016 61.6719 17.5078C62.6094 16.5547 63.5469 15.4297 64.4844 14.1328C67.0781 10.5859 68.375 7.59375 68.375 5.15625C68.375 5.03125 68.3438 4.88281 68.2812 4.71094C68.0312 4.02344 67.6172 3.67969 67.0391 3.67969ZM71.6562 28.8281C71.6562 28.2969 71.6875 27.7344 71.75 27.1406C72.0781 24.4688 72.9219 22.0938 74.2812 20.0156C75.9375 17.4688 77.9297 16.1953 80.2578 16.1953C80.8828 16.1953 81.4844 16.2734 82.0625 16.4297C84.125 17.0234 85.1562 18.4766 85.1562 20.7891C85.1562 20.9609 85.1484 21.1406 85.1328 21.3281C84.9766 23.4219 84.0391 25.1797 82.3203 26.6016C80.6328 28.0078 78.6719 28.7109 76.4375 28.7109C76.0156 28.7109 75.6016 28.6719 75.1953 28.5938C75.1641 28.8281 75.1484 29.1562 75.1484 29.5781C75.1484 30.4844 75.3047 31.1875 75.6172 31.6875C76.0391 32.3281 76.9062 32.7031 78.2188 32.8125C78.7969 32.8125 79.3672 32.75 79.9297 32.625C80.9141 32.3906 82.0781 31.8359 83.4219 30.9609C84.2969 30.3828 84.9141 30.0938 85.2734 30.0938C85.4766 30.0938 85.6875 30.1562 85.9062 30.2812C86.4062 30.5781 86.6562 31.0078 86.6562 31.5703C86.6562 31.7578 86.6172 31.9609 86.5391 32.1797C86.1172 33.1953 84.8516 34.1562 82.7422 35.0625C80.7891 35.9062 79.0703 36.3281 77.5859 36.3281C77.0234 36.3281 76.5 36.2812 76.0156 36.1875C73.1094 35.5938 71.6562 33.1406 71.6562 28.8281ZM79.1797 19.875C77.7578 20.8281 76.6406 22.6406 75.8281 25.3125C76.2188 25.4062 76.5938 25.4531 76.9531 25.4531C78.25 25.4531 79.3828 25.0547 80.3516 24.2578C81.4297 23.3828 81.9688 22.3438 81.9688 21.1406C81.9688 19.9375 81.5859 19.3281 80.8203 19.3125C80.2734 19.3281 79.7266 19.5156 79.1797 19.875ZM88.7422 28.4766C88.7422 27.9453 88.7734 27.3828 88.8359 26.7891C89.1641 24.1172 90.0078 21.7422 91.3672 19.6641C93.0234 17.1172 95.0156 15.8438 97.3438 15.8438C98.3594 15.8438 99.2422 16.0312 99.9922 16.4062C100.289 16.0469 100.703 15.8594 101.234 15.8438C101.484 15.8438 101.719 15.875 101.938 15.9375C102.531 16.1562 102.828 16.8125 102.828 17.9062C102.828 18.3594 102.75 19.3281 102.594 20.8125C102.125 25.2812 101.891 28.0469 101.891 29.1094C101.891 29.8281 102.031 30.5 102.312 31.125C102.75 32.0625 103.336 32.5312 104.07 32.5312C104.367 32.5312 104.664 32.4766 104.961 32.3672C107.164 31.6016 109.031 28.2266 110.562 22.2422C109.938 22.0859 109.359 21.8281 108.828 21.4688C107.406 20.5156 106.695 19.1328 106.695 17.3203C106.695 16.6484 106.867 16.0156 107.211 15.4219C107.898 14.2344 108.992 13.6406 110.492 13.6406C111.258 13.6406 111.984 13.8438 112.672 14.25C113.797 14.9531 114.359 15.9219 114.359 17.1562C114.359 17.6562 114.32 18.2969 114.242 19.0781C114.617 18.875 115.164 18.5312 115.883 18.0469C116.727 17.4531 117.359 17.1562 117.781 17.1562C118.266 17.1562 118.703 17.2812 119.094 17.5312C119.547 17.8125 119.773 18.1016 119.773 18.3984C119.773 18.4922 119.719 18.7422 119.609 19.1484C118.797 21.8516 118.391 24.2344 118.391 26.2969C118.391 27.8281 118.547 29.0781 118.859 30.0469C119.297 31.3281 119.945 31.9688 120.805 31.9688C121.289 31.9375 122.078 31.5938 123.172 30.9375C124.125 30.2969 124.836 29.9766 125.305 29.9766C125.539 29.9766 125.773 30.0625 126.008 30.2344C126.414 30.5312 126.617 30.8828 126.617 31.2891C126.57 32.1641 125.961 33.0547 124.789 33.9609C123.398 34.9766 121.914 35.4844 120.336 35.4844C120.148 35.4844 119.953 35.4766 119.75 35.4609C118.016 35.2422 116.742 34.2422 115.93 32.4609C115.336 31.4141 115.039 29.6016 115.039 27.0234C115.039 26.5234 115.055 25.9922 115.086 25.4297C115.18 23.7266 115.32 22.5078 115.508 21.7734C115.023 22.0078 114.438 22.1953 113.75 22.3359C113.656 22.8203 113.555 23.2969 113.445 23.7656C111.523 31.8906 108.211 35.9531 103.508 35.9531C101.539 35.9375 100.102 34.9453 99.1953 32.9766C98.9922 33.2109 98.7578 33.4531 98.4922 33.7031C96.9141 35.2031 95.3203 35.9531 93.7109 35.9531C92.7109 35.9531 91.8438 35.6953 91.1094 35.1797C89.5312 34.0234 88.7422 31.7891 88.7422 28.4766ZM98.9375 21.5391C98.9531 21.4453 99.0469 20.6641 99.2188 19.1953C98.8281 19.0078 98.4688 18.9141 98.1406 18.9141C97.8438 18.9141 97.5469 18.9531 97.25 19.0312C95.8125 19.4688 94.5938 20.8281 93.5938 23.1094C92.6875 25.1562 92.2344 27.1953 92.2344 29.2266C92.2344 29.5234 92.25 29.8047 92.2812 30.0703C92.4219 31.5859 92.8984 32.3438 93.7109 32.3438C94.1484 32.3438 94.6797 32.125 95.3047 31.6875C96.0391 31.1719 96.625 30.6328 97.0625 30.0703C97.1875 29.8828 97.3594 29.3906 97.5781 28.5938C98.1875 26.3125 98.6406 23.9609 98.9375 21.5391ZM109.531 17.4844C109.547 18.3594 110.094 18.9844 111.172 19.3594C111.328 18.3906 111.406 17.7656 111.406 17.4844C111.406 17.3906 111.391 17.2891 111.359 17.1797C111.25 16.7422 110.969 16.5234 110.516 16.5234C110.422 16.5234 110.32 16.5391 110.211 16.5703C109.758 16.7109 109.531 17.0156 109.531 17.4844ZM124.859 33.5625C124.859 33.5625 125.523 28.5469 126.852 18.5156C126.883 18.25 126.922 18 126.969 17.7656C127.25 16.4219 127.859 15.75 128.797 15.75C128.969 15.75 129.141 15.7656 129.312 15.7969C130.031 15.9688 130.391 16.6484 130.391 17.8359C130.391 18.0078 130.375 18.3047 130.344 18.7266C130.328 19.0078 130.32 19.2266 130.32 19.3828C130.352 19.3203 130.391 19.2578 130.438 19.1953C131.594 17.1484 133.242 16.125 135.383 16.125C136.148 16.125 136.852 16.3516 137.492 16.8047C138.445 17.5078 138.922 18.4375 138.922 19.5938C138.922 19.7812 138.914 20.2266 138.898 20.9297C138.883 22.5234 138.875 23.7891 138.875 24.7266C138.875 27.9141 138.969 29.7891 139.156 30.3516C139.203 30.4766 139.25 30.6094 139.297 30.75C139.734 31.9375 140.352 32.5312 141.148 32.5312C141.289 32.5312 141.445 32.5156 141.617 32.4844C142.086 32.3906 142.758 32.0234 143.633 31.3828C144.492 30.7734 145.18 30.4688 145.695 30.4688C145.898 30.4688 146.094 30.5234 146.281 30.6328C146.766 30.9141 147.008 31.375 147.008 32.0156C146.914 32.7812 146.258 33.625 145.039 34.5469C143.602 35.5156 142.156 36 140.703 36C139.531 36 138.539 35.6797 137.727 35.0391C136.055 33.6953 135.219 30.75 135.219 26.2031C135.219 25.875 135.227 25.3438 135.242 24.6094C135.273 23.8438 135.289 23.2031 135.289 22.6875C135.289 21.0156 135.102 20.1562 134.727 20.1094C134.664 20.1094 134.586 20.125 134.492 20.1562C133.602 20.4844 132.461 22.2578 131.07 25.4766C129.852 28.3047 129.07 30.6562 128.727 32.5312L128.68 33.2109C128.633 33.7734 128.477 34.2891 128.211 34.7578C127.758 35.5078 127.195 35.8828 126.523 35.8828C126.336 35.8828 126.148 35.8438 125.961 35.7656C125.227 35.4219 124.859 34.6875 124.859 33.5625Z" fill="url(#paint1_linear_65:4272)" fill-opacity="0.5"/>
<defs>
<radialGradient id="paint0_angular_65:4272" cx="0" cy="0" r="1" gradientUnits="userSpaceOnUse" gradientTransform="translate(71 22.5) rotate(90) scale(34.5 187)">
<stop stop-color="#93E5E9"/>
<stop offset="1" stop-color="#93E5E9" stop-opacity="0"/>
</radialGradient>
<linearGradient id="paint1_linear_65:4272" x1="71" y1="-12" x2="71" y2="36" gradientUnits="userSpaceOnUse">
<stop stop-color="#99F9BC"/>
<stop offset="1" stop-color="#99F9BC" stop-opacity="0"/>
</linearGradient>
</defs>
</svg>
