<svg width="57" height="53" viewBox="0 0 57 53" fill="none" xmlns="http://www.w3.org/2000/svg">
<path d="M50.2751 34.3709C53.7408 22.4255 46.9038 9.94316 35.0043 6.4908C23.1047 3.03844 10.6488 9.92341 7.1831 21.8688C3.71743 33.8142 10.5544 46.2966 22.454 49.7489C34.3535 53.2013 46.8095 46.3163 50.2751 34.3709Z" fill="#063843"/>
<path d="M17.0196 32.8584C16.9511 32.3317 16.9093 31.7699 16.8953 31.1729C16.8761 28.4811 17.4068 26.0171 18.4866 23.7811C19.8004 21.042 21.6116 19.5223 23.9212 19.2221C24.5409 19.1415 25.147 19.1415 25.7403 19.2219C27.8626 19.5447 29.0724 20.8529 29.3705 23.1461C29.3927 23.3164 29.4079 23.4957 29.4172 23.6835C29.5315 25.7801 28.8289 27.644 27.3076 29.2757C25.8159 30.8876 23.9619 31.8377 21.7456 32.1258C21.3271 32.1802 20.9115 32.1949 20.4989 32.1698C20.4983 32.4062 20.5248 32.7336 20.5792 33.152C20.696 34.0507 20.9423 34.7277 21.3162 35.1833C21.8173 35.7642 22.7254 36.0242 24.0415 35.9635C24.6147 35.8889 25.1719 35.7535 25.7131 35.5571C26.6596 35.1976 27.7424 34.4975 28.9624 33.4565C29.7555 32.7704 30.3301 32.4043 30.6862 32.358C30.8875 32.3318 31.1047 32.3665 31.338 32.4622C31.8721 32.6922 32.1754 33.0861 32.248 33.6439C32.2721 33.8298 32.2596 34.0363 32.2105 34.2633C31.923 35.3248 30.7914 36.4409 28.8169 37.6116C26.9889 38.7 25.3387 39.34 23.867 39.5313C23.3087 39.6039 22.7841 39.6248 22.291 39.5944C19.3327 39.3803 17.5756 37.1349 17.0196 32.8584V32.8584ZM23.3256 23.0102C22.0393 24.1385 21.1643 26.08 20.7035 28.8343C21.1034 28.8768 21.4813 28.875 21.8373 28.8287C23.1235 28.6615 24.1956 28.1203 25.0528 27.2053C26.009 26.1986 26.4106 25.0987 26.2554 23.9055C26.1003 22.7124 25.642 22.1575 24.8803 22.2408C24.3399 22.3268 23.8217 22.5832 23.3256 23.0102ZM34.8703 19.453C34.9287 19.9024 34.9773 20.8808 35.015 22.3885C35.1071 26.8514 35.2227 29.6174 35.3617 30.6866C35.4543 31.3993 35.6877 32.0465 36.0628 32.628C36.618 33.5012 37.2596 33.8904 37.9874 33.7958C38.1421 33.7757 38.3028 33.7391 38.4693 33.686C38.9044 33.5191 39.5076 33.0704 40.2798 32.3397C41.0362 31.6111 41.6693 31.2137 42.181 31.1472C42.3981 31.1189 42.6244 31.1683 42.8617 31.295C43.3363 31.5485 43.6059 31.9309 43.6724 32.4423C43.7136 33.2404 43.2106 34.1567 42.1632 35.191C40.8661 36.3681 39.4361 37.0582 37.8703 37.2617C36.5534 37.4329 35.4022 37.1178 34.4156 36.3164C32.9323 35.0913 31.9937 32.9601 31.5988 29.9231C31.4639 28.885 31.4092 26.8279 31.4349 23.7521C31.437 22.318 31.4339 21.2627 31.4247 20.5864C31.4224 20.4449 31.4201 20.3034 31.4169 20.162C31.4634 18.5802 31.9983 17.7229 33.0207 17.59C33.1912 17.5678 33.3638 17.5611 33.5384 17.57C34.2726 17.6479 34.7172 18.2754 34.8703 19.453V19.453ZM31.4289 13.7081C31.3927 13.4293 31.4199 13.1578 31.5116 12.8938C31.7435 12.2492 32.2079 11.8815 32.9051 11.7909C33.1837 11.7547 33.4556 11.7824 33.7196 11.8741C34.3638 12.1055 34.7317 12.5697 34.8224 13.2669C34.8586 13.5459 34.8304 13.8174 34.7387 14.0814C34.5079 14.726 34.0434 15.0935 33.3462 15.1841C33.0676 15.2204 32.7957 15.1928 32.5317 15.1011C31.8875 14.8696 31.5196 14.4053 31.4289 13.7081V13.7081Z" fill="#ADD8E6"/>
</svg>
