<svg width="48" height="55" viewBox="0 0 48 55" fill="none" xmlns="http://www.w3.org/2000/svg">
<path d="M2.46078 49.734C1.80814 49.734 1.18223 49.5177 0.720747 49.1329C0.259261 48.748 0 48.226 0 47.6817V7.32102C0.00217109 5.38016 0.92751 3.51929 2.57296 2.14676C4.21841 0.774235 6.44955 0.00217339 8.77679 0H45.5392C46.1919 0 46.8178 0.216217 47.2793 0.601087C47.7407 0.985956 48 1.50795 48 2.05224V42.4129C48 42.9572 47.7407 43.4792 47.2793 43.8641C46.8178 44.249 46.1919 44.4652 45.5392 44.4652C44.8866 44.4652 44.2607 44.249 43.7992 43.8641C43.3377 43.4792 43.0784 42.9572 43.0784 42.4129V4.10448H8.77679C7.75487 4.1052 6.77503 4.44399 6.05227 5.0465C5.32951 5.64901 4.92287 6.46603 4.92156 7.31828V47.679C4.92199 47.9487 4.85866 48.2159 4.73519 48.4652C4.61172 48.7145 4.43052 48.941 4.20198 49.1319C3.97343 49.3228 3.70201 49.4742 3.40324 49.5775C3.10447 49.6808 2.78421 49.734 2.46078 49.734Z" fill="#063843"/>
<path d="M45.5392 54.9999H8.77679C6.44904 54.9999 4.21663 54.2287 2.57066 52.856C0.924694 51.4833 0 49.6215 0 47.6802C0 45.739 0.924694 43.8772 2.57066 42.5045C4.21663 41.1318 6.44904 40.3606 8.77679 40.3606H45.5392C46.1919 40.3606 46.8178 40.5768 47.2793 40.9617C47.7407 41.3466 48 41.8685 48 42.4128C48 42.9571 47.7407 43.4791 47.2793 43.864C46.8178 44.2489 46.1919 44.4651 45.5392 44.4651H8.77679C8.27051 44.4651 7.76919 44.5482 7.30146 44.7098C6.83372 44.8714 6.40872 45.1082 6.05073 45.4068C5.69274 45.7053 5.40877 46.0598 5.21502 46.4499C5.02128 46.8399 4.92156 47.258 4.92156 47.6802C4.92156 48.1025 5.02128 48.5206 5.21502 48.9106C5.40877 49.3007 5.69274 49.6552 6.05073 49.9537C6.40872 50.2523 6.83372 50.4891 7.30146 50.6507C7.76919 50.8123 8.27051 50.8954 8.77679 50.8954H45.5392C46.1919 50.8954 46.8178 51.1116 47.2793 51.4965C47.7407 51.8814 48 52.4034 48 52.9477C48 53.4919 47.7407 54.0139 47.2793 54.3988C46.8178 54.7837 46.1919 54.9999 45.5392 54.9999Z" fill="#063843"/>
<path d="M42.6913 54.6688C42.0386 54.6688 41.4127 54.4526 40.9512 54.0677C40.4898 53.6828 40.2305 53.1609 40.2305 52.6166V42.4128C40.2305 41.8685 40.4898 41.3466 40.9512 40.9617C41.4127 40.5768 42.0386 40.3606 42.6913 40.3606C43.3439 40.3606 43.9698 40.5768 44.4313 40.9617C44.8928 41.3466 45.1521 41.8685 45.1521 42.4128V52.6152C45.1523 52.8848 45.0888 53.1518 44.9652 53.401C44.8416 53.6501 44.6604 53.8765 44.4319 54.0672C44.2034 54.2579 43.932 54.4092 43.6334 54.5125C43.3347 54.6157 43.0146 54.6688 42.6913 54.6688Z" fill="#063843"/>
<path d="M30.8894 34.2395C30.355 34.2392 29.8352 34.0937 29.4087 33.8251C28.9822 33.5566 28.6722 33.1795 28.5254 32.751L24.0008 19.5442L19.4746 32.751C19.391 33.0149 19.2451 33.2622 19.0455 33.4785C18.8458 33.6947 18.5964 33.8756 18.3119 34.0106C18.0275 34.1455 17.7135 34.2317 17.3886 34.2642C17.0636 34.2967 16.7342 34.2749 16.4195 34.1999C16.1048 34.1249 15.8112 33.9983 15.5559 33.8275C15.3006 33.6568 15.0887 33.4452 14.9326 33.2053C14.7765 32.9654 14.6794 32.702 14.6469 32.4304C14.6144 32.1588 14.6472 31.8845 14.7434 31.6236L21.6335 11.5117C21.7802 11.0826 22.0906 10.7051 22.5176 10.4364C22.9446 10.1676 23.465 10.0222 24 10.0222C24.535 10.0222 25.0554 10.1676 25.4824 10.4364C25.9094 10.7051 26.2198 11.0826 26.3665 11.5117L33.2566 31.6236C33.4358 32.1469 33.3584 32.708 33.0415 33.1837C32.7246 33.6594 32.1942 34.0106 31.5669 34.1602C31.3467 34.2133 31.1186 34.2401 30.8894 34.2395Z" fill="#063843"/>
<path d="M29.1455 28.7641H18.9857C18.3331 28.7641 17.7072 28.5479 17.2457 28.1631C16.7842 27.7782 16.525 27.2562 16.525 26.7119C16.525 26.1676 16.7842 25.6456 17.2457 25.2608C17.7072 24.8759 18.3331 24.6597 18.9857 24.6597H29.1455C29.7981 24.6597 30.424 24.8759 30.8855 25.2608C31.347 25.6456 31.6063 26.1676 31.6063 26.7119C31.6063 27.2562 31.347 27.7782 30.8855 28.1631C30.424 28.5479 29.7981 28.7641 29.1455 28.7641Z" fill="#063843"/>
</svg>
