<svg width="44" height="47" viewBox="0 0 44 47" fill="none" xmlns="http://www.w3.org/2000/svg">
<path d="M15.3524 9.97913L14.0886 14.4258C11.8386 15.0658 9.78375 16.2507 8.1084 17.8742L3.58319 16.7319L1 21.1755L4.26444 24.5443C3.98476 25.6468 3.84088 26.779 3.83596 27.916C3.8421 29.086 3.99536 30.2506 4.29218 31.3828L1 34.7423L3.58319 39.1829L8.19163 38.0498C9.84223 39.6217 11.852 40.7724 14.0485 41.4032L15.3524 45.9999H20.5157L21.8505 41.4093C24.0631 40.7791 26.0874 39.6216 27.7474 38.0375L32.399 39.1829L34.9822 34.7423L31.6654 31.3583C31.956 30.2335 32.1051 29.0773 32.1093 27.916C32.1026 26.7904 31.9598 25.6697 31.6839 24.5779L34.9822 21.1755L32.399 16.7319L27.8553 17.8772C26.1624 16.2321 24.0807 15.0359 21.8012 14.3983L20.5157 9.97913H15.3524ZM14.4492 21.9289H21.533L25.0348 27.9589L21.496 34.0502H14.4862L10.9444 27.9589L14.4492 21.9289Z" stroke="#ADD8E6" stroke-width="2" stroke-linecap="round" stroke-linejoin="round"/>
<path d="M34.5846 1L34.042 2.90486C33.077 3.17933 32.1958 3.6876 31.4773 4.38403L29.5353 3.89404L28.4287 5.7989L29.8282 7.24132C29.7086 7.71506 29.6476 8.20148 29.6463 8.68987C29.6483 9.1921 29.7135 9.6921 29.8405 10.1782L28.4287 11.6176L29.5353 13.5225L31.5112 13.0355C32.2194 13.7091 33.0815 14.202 34.0235 14.4718L34.5846 16.4441H36.7979L37.3681 14.4749C38.3166 14.2046 39.1843 13.7084 39.8958 13.0294L41.8933 13.5225L43 11.6176L41.5758 10.1629C41.7005 9.68162 41.7647 9.18684 41.767 8.68987C41.7644 8.20661 41.7034 7.7254 41.5851 7.25664L43 5.7989L41.8933 3.89404L39.9421 4.3871C39.2166 3.68073 38.3241 3.16683 37.3466 2.89261L36.7979 1H34.5846ZM34.1962 6.12352H37.2325L38.7337 8.70825L37.2171 11.3205H34.2116L32.695 8.70825L34.1962 6.12352V6.12352Z" stroke="#ADD8E6" stroke-width="2" stroke-linecap="round" stroke-linejoin="round"/>
</svg>
